<svg id="Icons" xmlns="http://www.w3.org/2000/svg" viewBox="0 0 512 512"><defs><style>.cls-1{fill:#0989d8;}.cls-2{fill:#29a3fb;}.cls-3{fill:#2e3140;}.cls-4{fill:#334353;}.cls-5{fill:#3f5d77;}.cls-6{fill:#c2aacf;}.cls-7{fill:#decee5;}.cls-8{fill:#f4e6f4;}.cls-9{fill:#fa4654;}.cls-10{fill:#fff;}.cls-11{fill:#f39e22;}.cls-12{fill:#f9c744;}.cls-13{fill:#c44a1a;}.cls-14{fill:#e52e44;}.cls-15{fill:#fb626e;}.cls-16{fill:#aacfe5;}.cls-17{fill:#cde6f6;}.cls-18{fill:#eef9ff;}</style></defs><title>019-beer-export</title><circle class="cls-1" cx="256" cy="256" r="256"/><circle class="cls-2" cx="256" cy="256" r="202.37"/><path class="cls-3" d="M270.36,85.84H148.45a20.74,20.74,0,0,1,0-41.47,20.15,20.15,0,0,1,3.08.23L247,58.74a27.38,27.38,0,0,1,23.37,27.1Z"/><path class="cls-4" d="M247.23,58.77c7.54,1.19,6.57,12.39-1.06,12.39H148.45a20.74,20.74,0,0,1-19.39-13.4,20.76,20.76,0,0,1,19.35-13.39,20.15,20.15,0,0,1,3.08.23L247,58.74Z"/><ellipse class="cls-5" cx="158.33" cy="56.89" rx="6.59" ry="14.55" transform="translate(92.12 211.56) rotate(-86.59)"/><ellipse class="cls-5" cx="186.05" cy="58.55" rx="4.45" ry="9.84" transform="translate(116.55 240.79) rotate(-86.59)"/><path class="cls-6" d="M296.79,148.91v73.56A12.5,12.5,0,0,1,284.3,235H254.25A12.51,12.51,0,0,1,242,224.88l-1.1-5.58L228,154a26.42,26.42,0,0,1,25.93-31.54h16.43a26.08,26.08,0,0,1,9.14,1.63A26.42,26.42,0,0,1,296.79,148.91Z"/><path class="cls-7" d="M281.13,133.23v73.56a12.51,12.51,0,0,1-12.51,12.51H240.87L228,154a26.42,26.42,0,0,1,25.93-31.54h16.43a26.08,26.08,0,0,1,9.14,1.63A26,26,0,0,1,281.13,133.23Z"/><ellipse class="cls-8" cx="246.51" cy="154.86" rx="11.3" ry="19.86" transform="matrix(0.99, -0.15, 0.15, 0.99, -19.93, 37.56)"/><ellipse class="cls-8" cx="254.06" cy="194.11" rx="6.8" ry="14.68" transform="translate(-25.56 39.07) rotate(-8.38)"/><rect class="cls-6" x="253.38" y="85.84" width="16.99" height="36.64"/><path class="cls-7" d="M253.38,92.88h0a9.78,9.78,0,0,1,9.78,9.78v19.82a0,0,0,0,1,0,0h-9.78a0,0,0,0,1,0,0V92.88A0,0,0,0,1,253.38,92.88Z"/><rect class="cls-6" x="327.06" y="82.37" width="12.84" height="66.54"/><rect class="cls-7" x="327.06" y="82.37" width="6.42" height="66.54"/><path class="cls-6" d="M394.15,40.43a63.43,63.43,0,0,1-60.67,44.91,63.43,63.43,0,0,1-63.41-63.41A63.17,63.17,0,0,1,273.74.63h.07q4.2.3,8.37.73l2.67.29a256.46,256.46,0,0,1,99.78,33l.09.05C387.9,36.52,391.05,38.43,394.15,40.43Z"/><path class="cls-7" d="M384.72,34.67A63.42,63.42,0,0,1,325,76.83,63,63,0,0,1,284.6,62.31,63.46,63.46,0,0,1,273.74.63h.07q4.2.3,8.37.73A256.57,256.57,0,0,1,384.72,34.67Z"/><path class="cls-8" d="M281.56,9.33c-1.67,5.89-5.35,10-8.21,9.2-1.47-.42-2.44-2.05-2.81-4.33A63.17,63.17,0,0,1,273.68.82c0-.07.09-.13.13-.19q4.2.3,8.37.73A18.35,18.35,0,0,1,281.56,9.33Z"/><path class="cls-9" d="M384.63,34.62a52.69,52.69,0,1,1-99.78-33A256.46,256.46,0,0,1,384.63,34.62Z"/><path class="cls-10" d="M384.62,34.61c-.07.31-.15.62-.23.93h-20c-4.94,13.27-16.9,22.63-30.89,22.63s-26-9.36-30.89-22.63h-20a53.18,53.18,0,0,1-1.77-13.61,52.61,52.61,0,0,1,1.78-13.6h20a36.57,36.57,0,0,1,1.63-3.73A256.31,256.31,0,0,1,384.62,34.61Z"/><path class="cls-11" d="M357.65,21.94c0,14.5-10.82,26.26-24.17,26.26s-24.16-11.76-24.16-26.26a27.6,27.6,0,0,1,4.53-15.3A256.84,256.84,0,0,1,357.63,21C357.64,21.32,357.65,21.63,357.65,21.94Z"/><path class="cls-12" d="M351.52,21.94c0,10.82-8.07,19.6-18,19.6s-18-8.78-18-19.6a20.45,20.45,0,0,1,5.09-13.65,252.83,252.83,0,0,1,30.68,10.06A20.15,20.15,0,0,1,351.52,21.94Z"/><path class="cls-13" d="M342.66,15.11a2.67,2.67,0,0,1-1.93.83H326a2.66,2.66,0,0,1,0-5.31h3Q335.87,12.67,342.66,15.11Z"/><rect class="cls-13" x="316.77" y="20.21" width="33.2" height="5.31" rx="2.66"/><path class="cls-14" d="M421.38,230.37v221q-6.21,5.26-12.82,10.17-10.31,7.63-21.08,14.1a254.32,254.32,0,0,1-35.1,17.55v0q-2,.81-4,1.59V230.66A46.67,46.67,0,0,0,301.68,184h-4.89V148.91H339.9A81.47,81.47,0,0,1,421.38,230.37Z"/><path class="cls-9" d="M421.38,230.37v221q-6.21,5.26-12.82,10.17-10.31,7.63-21.08,14.1a33.63,33.63,0,0,1-23.22-32V214.75a46.68,46.68,0,0,0-46.67-46.67,4.88,4.88,0,0,1-4.89-4.89V148.91h27.2A81.47,81.47,0,0,1,421.38,230.37Z"/><ellipse class="cls-15" cx="384.72" cy="190.66" rx="12.71" ry="23.29" transform="matrix(0.78, -0.63, 0.63, 0.78, -34.37, 284.09)"/><ellipse class="cls-15" cx="401.7" cy="233.97" rx="8.74" ry="16.02" transform="matrix(0.99, -0.15, 0.15, 0.99, -29.79, 61)"/><path class="cls-16" d="M92.34,282.12,72.8,355.06a14.73,14.73,0,0,0,10.42,18.05L127.74,385l5-18.83L99,357.14a6.3,6.3,0,0,1-4.46-7.72l13.82-51.56a6.31,6.31,0,0,1,7.73-4.47l33.82,9.07,5-18.83L110.39,271.7A14.73,14.73,0,0,0,92.34,282.12Z"/><path class="cls-17" d="M92.34,282.12,74.91,347.18a14.73,14.73,0,0,0,10.42,18.05L113,372.65a4.45,4.45,0,0,0,5.44-3.15l.64-2.36a4.46,4.46,0,0,0-3.15-5.45l-23.25-6.23a6.3,6.3,0,0,1-4.46-7.73l15.92-59.44a6.31,6.31,0,0,1,7.73-4.46l23.26,6.23a4.44,4.44,0,0,0,5.44-3.15l.63-2.35a4.45,4.45,0,0,0-3.14-5.45l-27.67-7.41A14.74,14.74,0,0,0,92.34,282.12Z"/><ellipse class="cls-18" cx="94.18" cy="296.79" rx="12.28" ry="5.58" transform="translate(-216.87 310.95) rotate(-75)"/><ellipse class="cls-18" cx="87.82" cy="320.54" rx="8.52" ry="3.87" transform="translate(-244.53 322.41) rotate(-75)"/><path class="cls-16" d="M162.54,255.15,115.85,429.39a13.48,13.48,0,0,0,9.55,16.52l133.52,35.78a13.48,13.48,0,0,0,16.52-9.53l46.69-174.24a13.48,13.48,0,0,0-9.54-16.52L179.06,245.62A13.49,13.49,0,0,0,162.54,255.15Z"/><path class="cls-17" d="M162.54,255.15,115.85,429.39a13.48,13.48,0,0,0,9.55,16.52l119.14,31.93a13.5,13.5,0,0,0,16.52-9.54l46.69-174.24a13.5,13.5,0,0,0-9.54-16.52L179.06,245.62A13.49,13.49,0,0,0,162.54,255.15Z"/><rect class="cls-18" x="153.58" y="259.27" width="14.89" height="60.62" rx="7.45" transform="translate(241.61 610.98) rotate(-165)"/><rect class="cls-18" x="137.54" y="330.46" width="14.89" height="37.98" rx="7.45" transform="translate(194.58 724.51) rotate(-165)"/><path class="cls-11" d="M171,281l140.21,0L266.94,446.36a16.2,16.2,0,0,1-19.84,11.45l-99.53-26.67a16.19,16.19,0,0,1-11.45-19.84Z"/><ellipse class="cls-12" cx="185.91" cy="321.91" rx="24.79" ry="14.05" transform="translate(-173.15 418.17) rotate(-75)"/><ellipse class="cls-12" cx="173.53" cy="368.12" rx="15.46" ry="8.76" transform="translate(-226.96 440.46) rotate(-75)"/><circle class="cls-10" cx="236.32" cy="287.25" r="9.54"/><circle class="cls-10" cx="218.99" cy="330.24" r="12.34"/><circle class="cls-10" cx="275.51" cy="334.26" r="12.34"/><circle class="cls-10" cx="250.09" cy="363.65" r="8.03"/><circle class="cls-10" cx="245.86" cy="413" r="8.03"/><circle class="cls-10" cx="242.06" cy="313.1" r="8.03"/><circle class="cls-10" cx="287.86" cy="285.74" r="8.03"/><circle class="cls-10" cx="223.4" cy="383.14" r="10.34"/><circle class="cls-10" cx="188.26" cy="418.62" r="8.03"/><path class="cls-10" d="M307.8,281v0L171,281a18.71,18.71,0,0,1,25.27-17.62,18.81,18.81,0,0,1,37.47-.4,29.2,29.2,0,0,1,32.63-2.16,14.56,14.56,0,0,1,29.06,1.37,14.37,14.37,0,0,1-.66,4.33A14.57,14.57,0,0,1,307.8,281Z"/><path class="cls-10" d="M315,390.38h0a14.48,14.48,0,0,1-14.48-14.48l7.29-97.7a7.19,7.19,0,0,1,7.19-6.89h0a7.19,7.19,0,0,1,7.19,6.89l7.29,97.7A14.48,14.48,0,0,1,315,390.38Z"/><rect class="cls-10" x="300.51" y="400.16" width="28.96" height="41.74" rx="14.48"/><path class="cls-10" d="M257.42,235h23.71a0,0,0,0,1,0,0v70a10.34,10.34,0,0,1-10.34,10.34h-3A10.34,10.34,0,0,1,257.42,305V235a0,0,0,0,1,0,0Z"/></svg>